<svg version="1.0" xmlns="http://www.w3.org/2000/svg" viewBox="0 0 1280 1267">
    <g transform="translate(0.000000,1267.000000) scale(0.100000,-0.100000)" stroke="none">
        <path d="M6263 12655 c-195 -53 -352 -195 -869 -785 -715 -816 -1182 -1311 -2138 -2265 -964 -961 -1954 -1890 -2621 -2459 -395 -338 -453 -391 -524 -480
        -83 -105 -106 -158 -106 -251 0 -71 4 -88 36 -155 95 -200 267 -374 1139
        -1160 842 -759 1142 -1044 2034 -1930 927 -922 1308 -1320 2010 -2105 675
        -753 824 -902 1001 -1000 220 -122 381 -73 653 197 63 62 271 291 462 508 191
        217 447 505 570 640 1295 1422 2890 2981 4280 4181 118 102 253 221 300 264
        259 237 343 395 295 561 -61 212 -253 420 -1105 1194 -794 721 -1249 1152
        -1984 1880 -687 681 -1220 1236 -1930 2009 -600 653 -819 871 -1019 1015 -190
        136 -340 179 -484 141z"/>
    </g>
</svg>
